<?xml version="1.0" encoding="utf-8" ?>
<svg xmlns="http://www.w3.org/2000/svg" width="406.599" height="61.879" viewBox="0 0 312.368 47.652"><defs><style>.a{fill:#fff;}.b{fill:#da251d;}.c{fill:#fff500;}.d{fill:#c8c8c8;}</style></defs><g transform="translate(-15.726 -15.645)"><g transform="translate(15.726 15.645)"><g transform="translate(157.038 19.705)"><path d="M398.036,86.263a2.2,2.2,0,0,1-1.533.569h-2.1V80.7h2.1a2.119,2.119,0,0,1,1.533.569,3.157,3.157,0,0,1,.613,2.409C398.649,84.555,398.693,85.65,398.036,86.263Zm-.438-4.512a1.689,1.689,0,0,0-1.226-.438h-1.314v4.95h1.314a1.76,1.76,0,0,0,1.226-.438c.438-.438.394-1.358.394-2.1A3.079,3.079,0,0,0,397.6,81.751Z" transform="translate(-394.4 -80.7)"/><path d="M407.413,87.322c0,.92.438,1.446,1.226,1.446a1.292,1.292,0,0,0,1.1-.482l.438.35a1.926,1.926,0,0,1-1.533.657c-1.139,0-1.84-.657-1.84-2.146,0-1.358.657-2.146,1.752-2.146s1.752.788,1.752,2.059v.263Zm2.1-1.183a1.062,1.062,0,0,0-1.008-.657,1.107,1.107,0,0,0-1.007.657,1.535,1.535,0,0,0-.131.7H409.6A1.145,1.145,0,0,0,409.516,86.139Z" transform="translate(-401.368 -83.116)"/><path d="M420.316,89.249v-.482a1.564,1.564,0,0,1-1.183.526,1.527,1.527,0,0,1-1.1-.394,1.585,1.585,0,0,1-.438-1.183V85h.613v2.628a1.055,1.055,0,1,0,2.1,0V85h.613v4.249Z" transform="translate(-407.437 -83.116)"/><path d="M429.421,87.619a1.045,1.045,0,0,1-1.1-1.139V83.9H427.8v-.482h.526V82.1h.613v1.314h.92V83.9h-.92V86.48c0,.394.175.613.569.613h.307v.526Z" transform="translate(-413.169 -81.487)"/><path d="M436.052,89.393a2.454,2.454,0,0,1-1.752-.613l.394-.394a1.749,1.749,0,0,0,1.314.482c.7,0,1.139-.263,1.139-.745,0-.35-.219-.569-.7-.613l-.7-.044c-.832-.088-1.27-.438-1.27-1.139,0-.788.657-1.227,1.577-1.227a2.446,2.446,0,0,1,1.533.438l-.394.394a1.952,1.952,0,0,0-1.139-.35c-.613,0-.964.263-.964.7,0,.35.219.569.745.613l.7.044c.745.088,1.226.35,1.226,1.139C437.8,88.911,437.1,89.393,436.052,89.393Z" transform="translate(-416.822 -83.173)"/><path d="M446.384,89.393a1.9,1.9,0,0,1-1.884-2.146c0-1.446.789-2.146,1.884-2.146a1.8,1.8,0,0,1,1.4.613l-.438.394a1.2,1.2,0,0,0-1.927,0,1.694,1.694,0,0,0-.263,1.139,1.987,1.987,0,0,0,.263,1.139,1.2,1.2,0,0,0,1.927,0l.438.394A1.8,1.8,0,0,1,446.384,89.393Z" transform="translate(-422.554 -83.173)"/><path d="M457.316,86.833V84.2a1.055,1.055,0,1,0-2.1,0v2.628H454.6V80.7h.613v2.365a1.5,1.5,0,0,1,1.183-.526,1.439,1.439,0,0,1,1.533,1.577v2.716Z" transform="translate(-428.23 -80.7)"/><path d="M465.4,89.369V88.8h2.365v.569Z" transform="translate(-434.299 -85.252)"/><path d="M476.578,84.392h-1.621v2.541H474.3V80.8h2.278a1.8,1.8,0,1,1,0,3.592Zm-.044-3.022h-1.577v2.453h1.577a1.174,1.174,0,0,0,1.314-1.227A1.2,1.2,0,0,0,476.534,81.369Z" transform="translate(-439.3 -80.756)"/><path d="M488.579,88.855a1.8,1.8,0,0,1-2.453,0,2.247,2.247,0,0,1-.526-1.665,2.352,2.352,0,0,1,.526-1.708,1.8,1.8,0,0,1,2.453,0,2.293,2.293,0,0,1,.526,1.708A2.247,2.247,0,0,1,488.579,88.855Zm-.438-3.022a1.111,1.111,0,0,0-1.533,0,2.639,2.639,0,0,0,0,2.628,1.026,1.026,0,0,0,.745.307,1.365,1.365,0,0,0,.788-.307,2.639,2.639,0,0,0,0-2.628Z" transform="translate(-445.65 -83.116)"/><path d="M497.6,86.889a1.025,1.025,0,0,1-1.1-1.139V80.8h.613v4.994c0,.394.131.613.569.613h.35v.526H497.6Z" transform="translate(-451.776 -80.756)"/><path d="M505.116,89.193V86.608a1.055,1.055,0,1,0-2.1,0v2.584H502.4V84.944h.613v.482A1.5,1.5,0,0,1,504.2,84.9a1.527,1.527,0,0,1,1.1.394,1.586,1.586,0,0,1,.438,1.183v2.716Z" transform="translate(-455.091 -83.06)"/><path d="M513.4,81.4v-.7h.7v.7Zm.044,5.432V82.584h.613v4.249Z" transform="translate(-461.273 -80.7)"/><path d="M519.252,89.393a2.454,2.454,0,0,1-1.752-.613l.394-.394a1.749,1.749,0,0,0,1.314.482c.7,0,1.139-.263,1.139-.745,0-.35-.219-.569-.7-.613l-.7-.044c-.832-.088-1.27-.438-1.27-1.139,0-.788.657-1.227,1.577-1.227a2.446,2.446,0,0,1,1.533.438l-.394.394a1.953,1.953,0,0,0-1.139-.35c-.613,0-.964.263-.964.7,0,.35.219.569.744.613l.7.044c.745.088,1.226.35,1.226,1.139C520.96,88.911,520.26,89.393,519.252,89.393Z" transform="translate(-463.577 -83.173)"/><path d="M529.484,89.393a1.9,1.9,0,0,1-1.884-2.146c0-1.446.788-2.146,1.884-2.146a1.8,1.8,0,0,1,1.4.613l-.438.394a1.2,1.2,0,0,0-1.927,0,1.7,1.7,0,0,0-.263,1.139,1.989,1.989,0,0,0,.263,1.139,1.2,1.2,0,0,0,1.927,0l.438.394A1.743,1.743,0,0,1,529.484,89.393Z" transform="translate(-469.253 -83.173)"/><path d="M540.516,86.833V84.2a1.055,1.055,0,1,0-2.1,0v2.628H537.8V80.7h.613v2.365a1.5,1.5,0,0,1,1.183-.526,1.439,1.439,0,0,1,1.533,1.577v2.716Z" transform="translate(-474.985 -80.7)"/><path d="M548.913,87.322c0,.92.438,1.446,1.227,1.446a1.293,1.293,0,0,0,1.1-.482l.438.35a1.926,1.926,0,0,1-1.533.657c-1.139,0-1.84-.657-1.84-2.146,0-1.358.657-2.146,1.752-2.146s1.752.788,1.752,2.059v.263Zm2.1-1.183a1.1,1.1,0,0,0-2.015,0,1.537,1.537,0,0,0-.131.7H551.1A.9.9,0,0,0,551.016,86.139Z" transform="translate(-480.885 -83.116)"/><path d="M560.052,89.393a2.454,2.454,0,0,1-1.752-.613l.394-.394a1.749,1.749,0,0,0,1.314.482c.7,0,1.139-.263,1.139-.745,0-.35-.219-.569-.7-.613l-.7-.044c-.832-.088-1.27-.438-1.27-1.139,0-.788.657-1.227,1.577-1.227a2.447,2.447,0,0,1,1.533.438l-.394.394a1.953,1.953,0,0,0-1.139-.35c-.613,0-.964.263-.964.7,0,.35.219.569.745.613l.7.044c.745.088,1.227.35,1.227,1.139C561.76,88.911,561.06,89.393,560.052,89.393Z" transform="translate(-486.505 -83.173)"/><path d="M574,86.976a1.85,1.85,0,0,1-1.4-.569l.438-.438a1.172,1.172,0,0,0,.964.394,1.236,1.236,0,0,0,1.27-1.4V80.8h.657v4.249A1.863,1.863,0,0,1,574,86.976Z" transform="translate(-494.541 -80.756)"/><path d="M586.316,89.249v-.482a1.5,1.5,0,0,1-1.183.526,1.527,1.527,0,0,1-1.095-.394,1.586,1.586,0,0,1-.438-1.183V85h.613v2.628a1.055,1.055,0,1,0,2.1,0V85h.613v4.249Z" transform="translate(-500.722 -83.116)"/><path d="M595.877,91.276a1.883,1.883,0,0,1-1.446-.569l.394-.394a1.351,1.351,0,0,0,1.008.438c.832,0,1.183-.569,1.183-1.314V88.78a1.4,1.4,0,0,1-1.183.569,1.419,1.419,0,0,1-1.008-.394A2.4,2.4,0,0,1,594.3,87.2a2.283,2.283,0,0,1,.526-1.752,1.518,1.518,0,0,1,1.051-.35,1.259,1.259,0,0,1,1.183.569v-.482h.613v4.38A1.732,1.732,0,0,1,595.877,91.276Zm.088-5.695c-.92,0-1.051.788-1.051,1.577s.131,1.577,1.051,1.577,1.051-.788,1.051-1.577S596.884,85.582,595.964,85.582Z" transform="translate(-506.735 -83.173)"/><path d="M605.513,87.322c0,.92.438,1.446,1.226,1.446a1.292,1.292,0,0,0,1.1-.482l.438.35a1.926,1.926,0,0,1-1.533.657c-1.139,0-1.84-.657-1.84-2.146,0-1.358.657-2.146,1.752-2.146s1.752.788,1.752,2.059v.263Zm2.1-1.183a1.062,1.062,0,0,0-1.007-.657,1.107,1.107,0,0,0-1.007.657,1.537,1.537,0,0,0-.131.7H607.7A1.145,1.145,0,0,0,607.616,86.139Z" transform="translate(-512.692 -83.116)"/><path d="M618.516,89.193V86.608a1.055,1.055,0,1,0-2.1,0v2.584H615.8V84.944h.613v.482A1.5,1.5,0,0,1,617.6,84.9a1.526,1.526,0,0,1,1.1.394,1.586,1.586,0,0,1,.438,1.183v2.716Z" transform="translate(-518.817 -83.06)"/><path d="M629,86.889v-.526a1.43,1.43,0,0,1-1.226.569,1.6,1.6,0,0,1-1.051-.35,3.331,3.331,0,0,1,0-3.592,1.518,1.518,0,0,1,1.051-.35,1.315,1.315,0,0,1,1.183.526V80.8h.613v6.133H629Zm-1.051-3.723c-.92,0-1.051.788-1.051,1.621s.131,1.621,1.051,1.621S629,85.618,629,84.786,628.872,83.165,627.952,83.165Z" transform="translate(-524.662 -80.756)"/><path d="M640.687,89.249h-.569l-1.1-3.285-1.1,3.285h-.57L636,85h.657l.964,3.417,1.1-3.417h.526l1.139,3.417L641.344,85H642Z" transform="translate(-530.169 -83.116)"/><path d="M651.713,87.322c0,.92.438,1.446,1.227,1.446a1.292,1.292,0,0,0,1.1-.482l.438.35a1.926,1.926,0,0,1-1.533.657c-1.139,0-1.84-.657-1.84-2.146,0-1.358.657-2.146,1.752-2.146s1.752.788,1.752,2.059v.263Zm2.146-1.183a1.062,1.062,0,0,0-1.007-.657,1.106,1.106,0,0,0-1.007.657,1.535,1.535,0,0,0-.132.7h2.234A1.6,1.6,0,0,0,653.859,86.139Z" transform="translate(-538.654 -83.116)"/><path d="M664.465,85.776a.9.9,0,0,0-.745-.307,1.028,1.028,0,0,0-1.008,1.139v2.584H662.1V84.944h.613v.526A1.415,1.415,0,0,1,663.9,84.9a1.288,1.288,0,0,1,1.007.394Z" transform="translate(-544.836 -83.06)"/><path d="M673.1,86.889l-1.358-2.146-.832.964v1.227H670.3V80.8h.613v4.074l1.927-2.19h.789L672.184,84.3l1.664,2.628H673.1Z" transform="translate(-549.444 -80.756)"/><path d="M396.678,110.792h-1.621v2.541H394.4V107.2h2.278a1.726,1.726,0,0,1,1.884,1.8A1.748,1.748,0,0,1,396.678,110.792Zm-.088-3.023h-1.577v2.453h1.577A1.174,1.174,0,0,0,397.9,109,1.154,1.154,0,0,0,396.59,107.769Z" transform="translate(-394.4 -95.592)"/><path d="M408.679,115.211a1.8,1.8,0,0,1-2.453,0,2.247,2.247,0,0,1-.526-1.665,2.189,2.189,0,0,1,.526-1.665,1.8,1.8,0,0,1,2.453,0,2.247,2.247,0,0,1,.526,1.665A2.189,2.189,0,0,1,408.679,115.211Zm-.438-2.979a1.111,1.111,0,0,0-1.533,0,2.639,2.639,0,0,0,0,2.628,1.026,1.026,0,0,0,.745.307,1.259,1.259,0,0,0,.788-.307,2.639,2.639,0,0,0,0-2.628Z" transform="translate(-400.75 -97.952)"/><path d="M417.7,113.233a1.024,1.024,0,0,1-1.095-1.139V107.1h.613v4.95c0,.394.131.613.57.613h.35v.526H417.7Z" transform="translate(-406.876 -95.536)"/><path d="M423.352,115.693a2.455,2.455,0,0,1-1.752-.613l.394-.394a1.75,1.75,0,0,0,1.314.482c.7,0,1.139-.263,1.139-.745,0-.35-.219-.569-.7-.613l-.7-.044c-.832-.088-1.27-.438-1.27-1.139,0-.788.657-1.227,1.577-1.227a2.446,2.446,0,0,1,1.533.438l-.394.394a1.952,1.952,0,0,0-1.139-.35c-.613,0-.964.263-.964.7,0,.35.219.569.745.613l.7.044c.745.088,1.227.35,1.227,1.139C425.06,115.255,424.36,115.693,423.352,115.693Z" transform="translate(-409.685 -97.952)"/><path d="M435,113.289l-1.358-2.146-.832.964v1.227H432.2V107.2h.613v4.074l1.927-2.19h.789l-1.446,1.621,1.665,2.628H435Z" transform="translate(-415.642 -95.592)"/><path d="M444.779,115.211a1.8,1.8,0,0,1-2.453,0,2.246,2.246,0,0,1-.526-1.665,2.188,2.188,0,0,1,.526-1.665,1.8,1.8,0,0,1,2.453,0,2.246,2.246,0,0,1,.526,1.665A2.189,2.189,0,0,1,444.779,115.211Zm-.438-2.979a1.111,1.111,0,0,0-1.533,0,2.639,2.639,0,0,0,0,2.628,1.026,1.026,0,0,0,.745.307,1.26,1.26,0,0,0,.789-.307,2.64,2.64,0,0,0,0-2.628Z" transform="translate(-421.037 -97.952)"/><path d="M452.5,115.769V115.2h2.365v.569Z" transform="translate(-427.05 -100.088)"/><path d="M465.3,113.233l-3.242-4.906v4.906H461.4V107.1h.613l3.241,4.906V107.1h.657v6.133Z" transform="translate(-432.051 -95.536)"/><path d="M475.5,107.8v-.7h.7v.7Zm0,5.432v-4.249h.613v4.249Z" transform="translate(-439.975 -95.536)"/><path d="M480.613,113.722c0,.92.438,1.446,1.226,1.446a1.292,1.292,0,0,0,1.1-.482l.438.35a1.926,1.926,0,0,1-1.533.657c-1.139,0-1.84-.657-1.84-2.146,0-1.358.657-2.146,1.752-2.146s1.752.788,1.752,2.059v.263Zm2.1-1.183a1.062,1.062,0,0,0-1.008-.657,1.107,1.107,0,0,0-1.007.657,1.536,1.536,0,0,0-.131.7H482.8A1.146,1.146,0,0,0,482.716,112.539Z" transform="translate(-442.504 -97.952)"/><path d="M496.332,115.537v-2.628a1.053,1.053,0,1,0-2.1-.088v2.672h-.613v-2.628a1.055,1.055,0,1,0-2.1,0v2.628H490.9v-4.249h.613v.482a1.564,1.564,0,0,1,1.183-.526,1.491,1.491,0,0,1,1.314.7,1.547,1.547,0,0,1,1.4-.7,1.527,1.527,0,0,1,1.1.394,1.586,1.586,0,0,1,.438,1.183v2.716h-.613Z" transform="translate(-448.629 -97.84)"/><path d="M508.1,107.8v-.7h.7v.7Zm.044,5.432v-4.249h.613v4.249Z" transform="translate(-458.295 -95.536)"/><path d="M513.213,113.722c0,.92.438,1.446,1.226,1.446a1.293,1.293,0,0,0,1.1-.482l.438.35a1.925,1.925,0,0,1-1.533.657c-1.139,0-1.84-.657-1.84-2.146,0-1.358.657-2.146,1.752-2.146s1.752.788,1.752,2.059v.263Zm2.1-1.183a1.062,1.062,0,0,0-1.008-.657,1.107,1.107,0,0,0-1.008.657,1.537,1.537,0,0,0-.131.7H515.4A1.145,1.145,0,0,0,515.316,112.539Z" transform="translate(-460.823 -97.952)"/><path d="M524.883,115.693A1.9,1.9,0,0,1,523,113.546c0-1.446.788-2.146,1.884-2.146a1.8,1.8,0,0,1,1.4.613l-.438.394a1.2,1.2,0,0,0-1.927,0,1.694,1.694,0,0,0-.263,1.139,1.987,1.987,0,0,0,.263,1.139,1.2,1.2,0,0,0,1.927,0l.438.394A1.67,1.67,0,0,1,524.883,115.693Z" transform="translate(-466.668 -97.952)"/><path d="M535.9,113.289l-1.358-2.146-.832.964v1.227H533.1V107.2h.613v4.074l1.927-2.19h.789l-1.446,1.621,1.665,2.628H535.9Z" transform="translate(-472.343 -95.592)"/><path d="M545.716,115.593V115.2a1.473,1.473,0,0,1-1.226.438,1.54,1.54,0,0,1-1.183-.394,1.194,1.194,0,0,1-.307-.876c0-.745.526-1.227,1.446-1.227h1.27v-.394c0-.613-.307-.92-1.1-.92a1.076,1.076,0,0,0-1.051.482l-.438-.394a1.64,1.64,0,0,1,1.489-.613c1.139,0,1.708.482,1.708,1.4v2.891Zm0-1.927h-1.183c-.657,0-.964.263-.964.745s.307.745.964.745a1.463,1.463,0,0,0,.964-.263,1.076,1.076,0,0,0,.219-.745Z" transform="translate(-477.907 -97.896)"/><path d="M562.919,113.233h-.613l-1.358-4.906-1.358,4.906h-.613L557.4,107.1h.7l1.183,4.95,1.358-4.95h.569l1.358,4.95,1.183-4.95h.7Z" transform="translate(-485.999 -95.536)"/><path d="M575.652,115.693a2.454,2.454,0,0,1-1.752-.613l.394-.394a1.749,1.749,0,0,0,1.314.482c.7,0,1.139-.263,1.139-.745,0-.35-.219-.569-.7-.613l-.7-.044c-.832-.088-1.27-.438-1.27-1.139,0-.788.657-1.227,1.577-1.227a2.446,2.446,0,0,1,1.533.438l-.394.394a1.953,1.953,0,0,0-1.139-.35c-.613,0-.964.263-.964.7,0,.35.219.569.745.613l.7.044c.745.088,1.226.35,1.226,1.139C577.4,115.255,576.7,115.693,575.652,115.693Z" transform="translate(-495.271 -97.952)"/><path d="M587.447,115.23a1.518,1.518,0,0,1-1.051.35,1.354,1.354,0,0,1-1.183-.569v2.409H584.6v-6.133h.613v.482a1.4,1.4,0,0,1,1.183-.569,1.6,1.6,0,0,1,1.051.35,2.511,2.511,0,0,1,.526,1.8A2.613,2.613,0,0,1,587.447,115.23Zm-1.139-3.417c-.92,0-1.051.788-1.051,1.621s.131,1.621,1.051,1.621,1.052-.788,1.052-1.621S587.228,111.813,586.308,111.813Z" transform="translate(-501.284 -97.84)"/><path d="M597.679,112.4a1.8,1.8,0,0,1-2.453,0,2.247,2.247,0,0,1-.526-1.665,2.189,2.189,0,0,1,.526-1.665,1.8,1.8,0,0,1,2.453,0,2.247,2.247,0,0,1,.526,1.665A2.189,2.189,0,0,1,597.679,112.4Zm-.438-2.979a1.111,1.111,0,0,0-1.533,0,2.639,2.639,0,0,0,0,2.628,1.026,1.026,0,0,0,.745.307,1.365,1.365,0,0,0,.789-.307,2.64,2.64,0,0,0,0-2.628Zm-.613-1.708h-.57l.745-1.314h.745Z" transform="translate(-506.96 -95.142)"/><path d="M606.321,113.289a1.024,1.024,0,0,1-1.1-1.139v-1.8l-.526.35v-.526l.526-.35V107.2h.613v2.278l.7-.438v.526l-.7.438v2.146c0,.394.131.613.569.613h.351v.526Z" transform="translate(-512.58 -95.592)"/><path d="M614.747,115.23a1.517,1.517,0,0,1-1.051.35,1.354,1.354,0,0,1-1.183-.569v2.409H611.9v-6.133h.613v.482a1.4,1.4,0,0,1,1.183-.569,1.6,1.6,0,0,1,1.051.35,2.51,2.51,0,0,1,.526,1.8A2.611,2.611,0,0,1,614.747,115.23Zm-1.139-3.417c-.92,0-1.051.788-1.051,1.621s.131,1.621,1.051,1.621,1.051-.788,1.051-1.621S614.528,111.813,613.608,111.813Z" transform="translate(-516.626 -97.84)"/><path d="M624.965,112.176a.9.9,0,0,0-.745-.307,1.028,1.028,0,0,0-1.007,1.139v2.584H622.6v-4.249h.613v.526a1.414,1.414,0,0,1,1.183-.569,1.288,1.288,0,0,1,1.007.394Z" transform="translate(-522.639 -97.896)"/><path d="M632.716,115.593V115.2a1.473,1.473,0,0,1-1.227.438,1.54,1.54,0,0,1-1.183-.394,1.194,1.194,0,0,1-.307-.876c0-.745.526-1.227,1.445-1.227h1.27v-.394c0-.613-.307-.92-1.1-.92a1.076,1.076,0,0,0-1.051.482l-.438-.394a1.641,1.641,0,0,1,1.49-.613c1.139,0,1.708.482,1.708,1.4v2.891Zm0-1.927h-1.183c-.657,0-.964.263-.964.745s.307.745.964.745a1.463,1.463,0,0,0,.964-.263,1.076,1.076,0,0,0,.219-.745Z" transform="translate(-526.797 -97.896)"/><path d="M642.384,115.693a1.9,1.9,0,0,1-1.884-2.146c0-1.446.789-2.146,1.884-2.146a1.8,1.8,0,0,1,1.4.613l-.438.394a1.2,1.2,0,0,0-1.927,0,1.694,1.694,0,0,0-.263,1.139,1.986,1.986,0,0,0,.263,1.139,1.2,1.2,0,0,0,1.927,0l.438.394A1.722,1.722,0,0,1,642.384,115.693Z" transform="translate(-532.698 -97.952)"/><path d="M652.416,115.593V115.2a1.473,1.473,0,0,1-1.226.438,1.54,1.54,0,0,1-1.183-.394,1.193,1.193,0,0,1-.307-.876c0-.745.526-1.227,1.445-1.227h1.27v-.394c0-.613-.307-.92-1.1-.92a1.076,1.076,0,0,0-1.051.482l-.438-.394a1.64,1.64,0,0,1,1.489-.613c1.139,0,1.708.482,1.708,1.4v2.891Zm0-1.927h-1.183c-.657,0-.964.263-.964.745s.307.745.964.745a1.462,1.462,0,0,0,.964-.263,1.076,1.076,0,0,0,.219-.745Z" transform="translate(-537.868 -97.896)"/><path d="M670.4,113.233v-4.643l-1.664,3.68h-.569l-1.708-3.68v4.643H665.8V107.1h.657l2.015,4.337L670.4,107.1h.657v6.133Z" transform="translate(-546.915 -95.536)"/><path d="M682.22,113.289a1.024,1.024,0,0,1-1.095-1.139v-1.8l-.526.35v-.526l.526-.35V107.2h.613v2.278l.7-.438v.526l-.7.438v2.146c0,.394.131.613.569.613h.351v.526Z" transform="translate(-555.232 -95.592)"/><path d="M690.179,115.211a1.8,1.8,0,0,1-2.453,0,2.247,2.247,0,0,1-.526-1.665,2.189,2.189,0,0,1,.526-1.665,1.8,1.8,0,0,1,2.453,0,2.247,2.247,0,0,1,.526,1.665A2.189,2.189,0,0,1,690.179,115.211Zm-.438-2.979a1.111,1.111,0,0,0-1.533,0,2.64,2.64,0,0,0,0,2.628,1.026,1.026,0,0,0,.745.307,1.364,1.364,0,0,0,.789-.307,2.64,2.64,0,0,0,0-2.628Z" transform="translate(-558.941 -97.952)"/><path d="M700.46,113.345v-.482a1.4,1.4,0,0,1-1.183.569,1.6,1.6,0,0,1-1.051-.35,3.331,3.331,0,0,1,0-3.592,1.518,1.518,0,0,1,1.051-.35,1.315,1.315,0,0,1,1.183.526V107.3h.613v6.133h-.613Zm-1.051-3.723c-.92,0-1.051.788-1.051,1.621s.132,1.621,1.051,1.621,1.051-.788,1.051-1.621S700.328,109.622,699.408,109.622Z" transform="translate(-564.842 -95.648)"/><path d="M708.1,115.649v-.526l2.365-3.154h-2.234V111.4h2.935v.526L708.8,115.08h2.365v.569Z" transform="translate(-570.686 -97.952)"/><path d="M717.8,107.8v-.7h.7v.7Zm.044,5.432v-4.249h.613v4.249Z" transform="translate(-576.137 -95.536)"/><path d="M723.013,113.722c0,.92.438,1.446,1.227,1.446a1.293,1.293,0,0,0,1.1-.482l.438.35a1.926,1.926,0,0,1-1.533.657c-1.139,0-1.84-.657-1.84-2.146,0-1.358.657-2.146,1.752-2.146s1.752.788,1.752,2.059v.263Zm2.1-1.183a1.062,1.062,0,0,0-1.008-.657,1.106,1.106,0,0,0-1.007.657,1.534,1.534,0,0,0-.132.7H725.2A1.6,1.6,0,0,0,725.116,112.539Z" transform="translate(-578.722 -97.952)"/><path d="M732.5,113.514v-.526l2.365-3.154h-2.234v-.569h2.935v.526l-2.366,3.154h2.366v.569Zm1.226-5.914h.657v.657h-.657Z" transform="translate(-584.398 -95.817)"/><path d="M742.452,116.7a1.018,1.018,0,0,1-.307.482,1.156,1.156,0,0,1-.832.307h-.263v-.569h.175c.438,0,.57-.131.7-.526l.307-.832L740.7,111.4h.657l1.183,3.417,1.139-3.417h.657Z" transform="translate(-589.006 -97.952)"/></g><path class="a" d="M113,76.712l.569-1.051,1.008-1.358,2.1-1.884,3.636-2.584L124.3,68l3.022-.613,1.621-.175L132.1,66.9l2.628.219,2.716.788,2.146,1.183,1.358.35,2.453,1.752,2.672,2.234,2.234,1.971,2.5,1.84,2.584,1.27,3.811.788h2.628l3.68-.745,3.066-1.314,2.059-1.446,1.577-.876.263-.394,1.227.745-.7,1.007-2.847,2.278L166.4,80.085l-2.935,1.665-1.489.569-2.1.92-1.884.35-2.409.263h-2.365l-3.154-.613-1.27-.788-1.489-.745-1.446-.92-1.227-.92-1.27-.788-.876-.745-1.007-1.008-1.051-.876-1.358-.964-1.051-1.007-1.621-1.051-.964-.526-1.183-.482-1.358-.438-1.226-.263-1.183-.175-1.4-.131-1.84.263-1.227.088-1.577.219h-.964l-.964.219-2.234.788-1.27.438-1.183.526L116.5,74.7l-1.051.7-1.27.832L113,77.106Z" transform="translate(-79.227 -53.24)"/><path d="M91.05,90.185A40.69,40.69,0,0,0,95.78,86.9l.482.394.569.482a73.7,73.7,0,0,1-9.243,6.965A53.681,53.681,0,0,1,72.871,101.4c-13.536,3.986-22.428,4.468-36.971,3.811l3.417-4.556c14.587.657,24.574-.044,37.146-4.03A61.138,61.138,0,0,0,91.05,90.185" transform="translate(-35.9 -64.479)"/><path d="M233.529,133.587v-2.979a1.753,1.753,0,0,0-.482-1.27,1.7,1.7,0,0,0-1.183-.438,1.744,1.744,0,0,0-1.533.788,1.531,1.531,0,0,0-1.4-.788,1.666,1.666,0,0,0-1.314.569v-.526h-.7v4.6h.7V130.7a1.142,1.142,0,1,1,2.278,0v2.847h.657V130.7a1.058,1.058,0,0,1,1.139-1.139,1.085,1.085,0,0,1,1.139,1.227v2.847h.7Zm-7.578-4.6h-.745l-1.051,3.723-1.227-3.723h-.569l-1.227,3.723-1.051-3.723h-.745l1.489,4.6h.613L222.666,130l1.183,3.592h.613Zm-7.491,4.6v-2.979a1.591,1.591,0,0,0-.482-1.27,1.78,1.78,0,0,0-1.183-.438,1.521,1.521,0,0,0-1.27.569v-.526h-.657v4.6h.657V130.7a1.142,1.142,0,1,1,2.278,0v2.847h.657Zm-5.782-2.278c0,.876-.131,1.752-1.139,1.752s-1.183-.876-1.183-1.752c0-.92.175-1.752,1.183-1.752,1.007-.044,1.139.832,1.139,1.752m.7,0a2.776,2.776,0,0,0-.569-1.971,1.565,1.565,0,0,0-1.139-.394,1.414,1.414,0,0,0-1.314.613v-.526H209.7v6.7h.657v-2.628a1.514,1.514,0,0,0,1.314.613,1.779,1.779,0,0,0,1.139-.394,2.954,2.954,0,0,0,.569-2.015" transform="translate(-133.568 -88.082)"/><path d="M254.548,108.359H253.8l-1.051,3.723-1.227-3.723h-.569l-1.227,3.723-1.051-3.723h-.745l1.445,4.6h.613l1.183-3.592,1.227,3.592h.613Zm-7.534-2.059h-.745v.745h.745Zm-.044,7.534V108.4h-.657v5.388c0,.438-.131.7-.613.7h-.35v.569h.482a1.083,1.083,0,0,0,1.139-1.227m-2.8-3.154c0,.92-.131,1.752-1.139,1.752s-1.139-.876-1.139-1.752.175-1.752,1.139-1.752c1.008,0,1.139.832,1.139,1.752m.7,0a2.776,2.776,0,0,0-.569-1.971,1.565,1.565,0,0,0-1.139-.394,1.514,1.514,0,0,0-1.314.613v-.569h-.657v6.7h.657v-2.628a1.514,1.514,0,0,0,1.314.613,1.778,1.778,0,0,0,1.139-.394,3,3,0,0,0,.569-1.971m-6.045,0c0,.92-.175,1.752-1.139,1.752-1.007,0-1.183-.876-1.183-1.752s.175-1.752,1.183-1.752c.964,0,1.139.832,1.139,1.752M239.48,113v-6.7h-.657v2.628a1.514,1.514,0,0,0-1.314-.613,1.779,1.779,0,0,0-1.139.394,3.7,3.7,0,0,0,0,3.942,1.565,1.565,0,0,0,1.139.394,1.468,1.468,0,0,0,1.314-.613V113Z" transform="translate(-148.235 -75.381)"/><path class="b" d="M260.745,50.953a45.436,45.436,0,0,0-5.081,3.592l-.964-.788a65.125,65.125,0,0,1,9.462-7.4,51.009,51.009,0,0,1,14.587-6.4c14.017-3.942,22.559-4.687,37.1-4.03l-3.417,4.556c-14.587-.657-23.085.088-37.146,4.03a51.408,51.408,0,0,0-14.543,6.439" transform="translate(-158.856 -35.716)"/><path class="c" d="M256.7,81.011c-4.687,0-8.235-2.541-11.3-5.213l-.7-.657,4.38-3.636.438.35c2.891,2.365,6,4.337,10.338,4.337,7.315,0,13.229-2.059,17.7-6.746.613-.657.964-1.1,1.8-2.146l-3.417,4.6C271.289,78.076,265.288,81.011,256.7,81.011Z" transform="translate(-153.237 -53.465)"/><path class="b" d="M197.216,63.656A18.973,18.973,0,0,0,184.951,67.9l-.569-.526-.482-.394c4.906-4.337,9.155-7.885,16.777-7.885,6.176,0,10.206,4.293,14.236,7.8l-4.38,3.636c-3.68-3.2-7.666-6.877-13.316-6.877" transform="translate(-119.07 -48.857)"/><path class="d" d="M168.968,74.948l-.044.044c-4.731,4.205-9.2,8.148-16.514,8.148-5.388,0-9.024-3.154-12.572-6.264-3.5-3.066-7.14-6.22-12.484-6.264h-.175c-6.483,0-11.652,1.621-15.77,4.994l.131-.175c4.818-5.957,10.425-8.717,18.748-8.717,5.344,0,9.2,2.979,12.791,6.176,3.5,3.11,7.14,6.308,12.747,6.308,5.344,0,9.2-2.278,12.616-4.731l-.482-.438c-3.285,2.409-7.009,4.556-12.09,4.556-5.344,0-8.717-2.979-12.309-6.176-3.5-3.11-7.666-6.308-13.229-6.308-8.41,0-14.368,2.935-19.274,8.98a16.672,16.672,0,0,0-1.489,2.365c-.307.569-.569,1.139-.569,1.139s.788-.745,1.27-1.139c.788-.657,1.007-.832,1.752-1.4,3.986-3.2,9.024-4.775,15.244-4.775h.175c5.081,0,8.454,2.979,12.046,6.089,3.636,3.154,7.359,6.4,12.966,6.4,7.534,0,12.09-4.03,16.908-8.279l.131-.088Z" transform="translate(-76.979 -52.791)"/></g></g></svg>